<?xml version="1.0" ?><!-- Uploaded to: SVG Repo, www.svgrepo.com, Generator: SVG Repo Mixer Tools -->
<svg width="800px" height="800px" viewBox="0 0 24 24" data-name="025_SCIENCE" id="_025_SCIENCE" xmlns="http://www.w3.org/2000/svg"><defs><style>.cls-1{fill:#333;}</style></defs><path class="cls-1" d="M18,22H7a4,4,0,0,1-4-4V6A4,4,0,0,1,7,2H20a1,1,0,0,1,0,2H7A2,2,0,0,0,5,6V18a2,2,0,0,0,2,2H18a1,1,0,0,0,1-1V7a1,1,0,0,1,2,0V19A3,3,0,0,1,18,22Z"/><path class="cls-1" d="M20,8H7A1,1,0,0,1,7,6H20a1,1,0,0,1,0,2Z"/><path class="cls-1" d="M15,13H9a1,1,0,0,1,0-2h6a1,1,0,0,1,0,2Z"/><path class="cls-1" d="M14,17H10a1,1,0,0,1,0-2h4a1,1,0,0,1,0,2Z"/></svg>